<svg xmlns="http://www.w3.org/2000/svg" viewBox="0 0 1348.11 381.47"><defs><style>.cls-1{fill:#5a81fa;}.cls-2{fill:none;stroke:#5a81fa;stroke-miterlimit:10;stroke-width:46px;}</style></defs><g id="Layer_2" data-name="Layer 2"><g id="Layer_2-2" data-name="Layer 2"><path class="cls-1" d="M1348.11,191.24a391.17,391.17,0,0,1-11,92.58,118.37,118.37,0,0,1-87.84,87.36,391.68,391.68,0,0,1-89.44,10.29,391.49,391.49,0,0,1-95.44-11.75,119,119,0,0,1-86.87-87.43,394,394,0,0,1-.18-182.73,118.36,118.36,0,0,1,85.33-87.2,393.85,393.85,0,0,1,184.72-2.67,119.06,119.06,0,0,1,89.35,87.42A391.86,391.86,0,0,1,1348.11,191.24Zm-160.77-65h-16.6a18.1,18.1,0,0,1-9.62-3,17.74,17.74,0,0,1-6.42-7.91c-5.14-13.28,23-29.82,18.78-44.48-2-7.13-10.73-10.38-12.11-10.87-26.95-9.55-67.18,41.48-73.63,49.67-32.18,40.82-34.79,78.95-35.17,86.23-.11,2.07-.15,3.78-.16,4.91v47a74.59,74.59,0,0,0,74.59,74.6h60.34a74.59,74.59,0,0,0,74.59-74.6v-47A74.59,74.59,0,0,0,1187.34,126.24Z"/><path class="cls-2" d="M763.92,259.42l-1.2-59.25c12.52-.16,57-.28,68.54,21.65,15.28,29-30.34,90.24-86.57,101.4a104.9,104.9,0,0,1-44.49-1.14"/><path class="cls-2" d="M683.78,180.53l.6,57.54a288,288,0,0,1-54.71,6.26c-25.38.45-40.62.51-50.5-9.11-12.46-12.15-10.24-33.69-10.22-33.05l1.2,35.9a120.73,120.73,0,0,1-31.86,55.82,88.26,88.26,0,0,1-27.18,18.64c-23.23,10.15-45.09,7.87-54.78,6.24"/><path class="cls-2" d="M361.94,185.91l89.91,2.66a49.82,49.82,0,0,1,39.52,21c2.67,3.86,5.34,15.71,8,24.15a7.31,7.31,0,0,1-.56,5.68,23.59,23.59,0,0,1-2.47,3.67c-9.09,11.16-25.19,10.29-27.86,10.1-44.63,2.3-88.29-.38-132.73.39"/><path class="cls-2" d="M666.14,56.37c-63.57,29-142.67,55.39-235.47,66.09-16.32,1.88-32.23,3.18-47.69,4"/><path class="cls-2" d="M493.6,72.71A433.65,433.65,0,0,1,450.71,83c-15,2.79-29.08,4.58-41.88,5.7"/><path class="cls-2" d="M260.61,254l-1.21-59.25c12.52-.16,57-.28,68.54,21.65,15.28,29-30.33,90.25-86.57,101.4a105.09,105.09,0,0,1-44.49-1.13"/><path class="cls-2" d="M182.11,96.38c1.34,56,.67,97.86,2,153.81-3.32,11.5-11.91,34.31-34.46,51.66-27.31,21-65.62,26.73-102.93,16.87-13.18-3.47-22.27-14.88-22.54-27.84q-.59-28.69-1.18-57.4"/><path class="cls-2" d="M584.48,316.57q17.41,0,35-.24,27.69-.31,54.82-1"/></g></g></svg>